<?xml version="1.0" encoding="UTF-8" standalone="no"?><!DOCTYPE svg PUBLIC "-//W3C//DTD SVG 1.1//EN" "http://www.w3.org/Graphics/SVG/1.1/DTD/svg11.dtd"><svg width="100%" height="100%" viewBox="0 0 2253 978" version="1.1" xmlns="http://www.w3.org/2000/svg" xmlns:xlink="http://www.w3.org/1999/xlink" xml:space="preserve" xmlns:serif="http://www.serif.com/" style="fill-rule:evenodd;clip-rule:evenodd;stroke-linejoin:round;stroke-miterlimit:2;"><g><path d="M827.056,341.522c2.491,12.615 2.117,12.615 4.533,25.22c1.2,6.261 6.957,62.106 -0.946,109.043c-2.136,12.684 -2.661,12.553 -4.326,25.318c-0.817,6.266 -12.64,51.765 -21.575,72.144c-9.45,21.554 -16.013,40.955 -46.228,85.01c-20.023,29.195 -28.477,30.248 -19.801,39.271c23.332,24.265 24.391,23.191 36.521,35.335c10.597,10.609 19.651,-10.003 48.548,13.73c14.694,12.068 22.016,21.773 47.703,46.416c11.556,11.086 21.162,21.208 24.948,24.924c29.255,28.715 41.652,41.195 45.615,44.935c14.459,13.647 40.068,32.886 32.918,69.196c-2.543,12.914 -19.359,50.081 -64.813,44.362c-19.814,-2.493 -30.29,-16.501 -38.589,-24.157c-3.253,-3.001 -6.088,-5.617 -39.419,-38.805c-19.605,-19.522 -19.391,-19.656 -39.007,-39.121c-11.533,-11.444 -11.488,-11.464 -12.504,-12.444c-0.226,-0.218 -9.662,-8.926 -14.104,-14.07c-4.713,-5.459 -29.206,-23.062 -32.099,-43.554c-2.179,-15.432 4.996,-19.355 -2.9,-27.693c-2.796,-2.952 -3.13,-2.607 -36.173,-35.695c-10.19,-10.204 -10.441,2.296 -49.909,27.171c-2.819,1.777 -3.673,3.273 -13.049,8.587c-6.356,3.602 -6.055,4.057 -15.726,9.215c-34.222,18.253 -34.757,17.014 -59.776,27.263c-9.191,3.766 -9.402,2.976 -18.658,6.428c-4.564,1.702 -19.224,6.005 -24.817,6.964c-17.272,2.961 -16.939,4.614 -34.346,6.598c-4.718,0.538 -4.619,0.889 -18.855,2.51c-2.563,0.292 -35.821,2.612 -53.115,1.951c-24.171,-0.924 -82.823,-3.036 -152.878,-34.034c-36.739,-16.256 -52.08,-25.774 -82.672,-47.83c-24.799,-17.879 -53.457,-45.503 -68.448,-63.363c-4.062,-4.84 -17.256,-18.89 -27.359,-35.011c-0.291,-0.464 -12.523,-17.829 -18.488,-28.303c-5.114,-8.98 -4.98,-9.033 -5.45,-9.797c-10.212,-16.605 -15.792,-33.494 -20.618,-42.796c-0.772,-1.487 -0.483,-1.59 -7.7,-19.476c-3.91,-9.691 -18.699,-57.737 -20.558,-90.209c-1.258,-21.97 -2.787,-21.825 -2.921,-43.842c-0.194,-31.883 1.85,-34.817 2.709,-46.942c0.229,-3.234 0.353,-13.448 2.521,-24.611c1.586,-8.162 1.615,-12.475 6.316,-31.229c7.216,-28.787 14.006,-50.36 29.17,-81.941c5.978,-12.449 5.394,-12.727 14.84,-28.724c12.799,-21.675 13.121,-21.435 27.789,-41.844c8.411,-11.703 8.765,-11.345 18.037,-22.388c1.587,-1.891 4.397,-5.237 21.018,-22.591c9.642,-10.068 21.076,-19.893 25.986,-23.798c14.35,-11.411 23.953,-20.892 61.05,-42.829c4.62,-2.732 26.737,-15.81 60.474,-29.069c1.47,-0.578 1.555,-0.263 18.62,-6.571c8.224,-3.04 8.608,-1.662 21.77,-6.522c7.577,-2.797 16.94,-4.225 18.441,-4.454c10.923,-1.666 44.255,-11.793 112.723,-8.878c17.292,0.736 17.196,1.384 34.401,3.175c0.573,0.06 36.588,5.992 46.956,9.379c36.809,12.022 40.787,12.465 75.143,27.946c10.325,4.652 53.586,28.979 74.869,47.342c7.976,6.882 14.968,8.421 52.184,47.819c15.676,16.595 14.794,17.282 37.301,46.807c7.574,9.935 19.318,31.726 23.718,39.483c8.368,14.752 21.819,46.932 24.626,56.539c2.902,9.931 3.602,9.695 9.378,31.268c4.853,18.122 5.646,17.948 7.004,31.241Z" style="fill:#fdfdfc;"/><path d="M453.882,768.911c-70.503,4.514 -89.209,-2.859 -106.123,-5.744c-15.909,-2.713 -17.763,-4.023 -37.391,-9.585c-4.3,-1.218 -28.082,-9.864 -33.988,-13.009c-2.593,-1.381 -13.082,-5.732 -18.838,-9.123c-11.519,-6.785 -12.402,-5.191 -29.364,-16.873c-15.754,-10.85 -15.969,-10.464 -30.896,-22.409c-75.144,-60.13 -102.859,-132.991 -111.729,-156.877c-0.715,-1.925 -0.347,-2.003 -7.511,-24.55c-0.767,-2.413 -9.711,-37.216 -11.173,-62.865c-4.31,-75.602 6.518,-99.76 9.474,-115.494c1.664,-8.858 2.119,-8.719 6.988,-24.708c7.195,-23.628 28.845,-69.938 52.517,-99.909c7.478,-9.468 34.935,-46.712 84.508,-80.598c7.267,-4.967 32.561,-20.871 48.635,-27.554c12.875,-5.353 65.394,-32.003 144.337,-32.766c31.505,-0.305 43.247,1.775 46.95,2.431c17.544,3.108 22.384,1.945 46.939,9.316c1.584,0.475 13.044,2.919 21.965,6.232c5.515,2.048 9.062,2.646 36.701,14.421c3.734,1.591 17.067,8.706 18.537,9.49c5.487,2.928 41.469,24.704 59.08,40.379c55.52,49.418 72.756,85.706 81.532,99.29c0.524,0.811 13.909,26.339 20.888,45.92c6.017,16.882 10.158,24.822 18.425,69.012c0.372,1.987 0.687,3.671 3.072,25.085c3.715,33.35 -0.259,63.396 -0.982,68.858c-5.588,42.245 -7.823,41.776 -12.924,62.4c-3.703,14.974 -21.366,57.335 -28.515,68.336c-1.441,2.217 -24.476,43.821 -51.329,70.324c-5.207,5.139 -8.357,9.875 -26.898,25.983c-3.402,2.956 -20.01,17.386 -45.286,33.501c-4.738,3.021 -5,2.484 -9.749,5.499c-15.303,9.715 -55.039,28.888 -93.848,37.966c-12.543,2.934 -12.483,3.063 -25.241,4.962c-0.488,0.073 -0.462,0.15 -6.05,1.17c-9.634,1.759 -9.683,1.132 -12.712,1.486Z" style="fill:#772bb5;"/><path d="M952.839,466.659c0.576,-27.65 1.027,-27.659 7.021,-50.087c9.579,-35.844 31.432,-66.703 57.065,-86.778c8.816,-6.904 25.431,-17.53 30.684,-19.605c10.005,-3.951 9.467,-5.328 34.459,-12.3c22.071,-6.157 62.764,-3.871 68.732,-2.938c25.342,3.962 37.846,10.343 40.88,11.892c6.045,3.085 10.256,3.521 18.848,9.302c0.196,0.132 20.389,11.71 32.269,24.233c22.175,23.374 27.64,33.958 35.604,51.539c5.202,11.484 4.956,11.581 11.977,37.568c2.766,10.237 9.381,53.682 -5.637,96.405c-7.525,21.406 -21.035,43.096 -28.8,52.329c-6.666,7.926 -3.135,9.258 3.319,17.299c11.943,14.88 12.405,14.403 24.36,29.218c5.391,6.68 9.346,9.521 8.502,14.162c-0.457,2.513 -1.277,1.961 -3.869,1.913c-59.466,-1.095 -59.468,-1.086 -59.578,-1.11c-8.782,-1.852 -15.293,-17.858 -21.744,-18.786c-2.129,-0.306 -10.321,4.392 -16.049,7.059c-39.415,18.349 -92.733,14.823 -117.872,6.515c-24.556,-8.115 -28.533,-9.986 -55.719,-28.414c-6.632,-4.496 -23.659,-19.421 -39.282,-45.125c-28.28,-46.531 -25.114,-88.021 -25.17,-94.29Zm75.178,-40.959c-4.133,18.747 -4.999,18.616 -5.961,37.81c-0.312,6.231 0.092,6.203 1.455,24.97c0.198,2.727 2.981,16.638 5.121,22.057c2.14,5.418 9.904,33.21 40.131,54.173c11.16,7.74 26.338,11.439 28.761,12.029c19.133,4.663 44.029,3.427 58.985,-2.189c7.704,-2.893 8.198,-4.523 8.428,-5.284c1.134,-3.741 -0.765,-3.374 -4.785,-8.817c-0.128,-0.174 -25.212,-31.456 -32.971,-41.647c-2.99,-3.927 -2.846,-3.969 -5.928,-7.588c-0.408,-0.48 -6.097,-7.158 1.274,-7.77c3.616,-0.3 3.598,0.22 47.044,0.202c12.66,-0.005 13.432,0.356 21.398,10.253c13.154,16.34 12.733,17.608 16,17.441c3.815,-0.195 5.26,-5.723 9.099,-14.839c10.259,-24.365 9.233,-51.514 9.061,-56.053c-1.009,-26.682 -11.471,-47.025 -13.392,-50.76c-2.642,-5.136 -14.437,-31.873 -48.069,-46.884c-3.489,-1.557 -20.536,-9.166 -47.149,-7.598c-20.903,1.232 -34.353,7.952 -37.089,9.319c-3.311,1.654 -19.209,9.598 -35.246,29.968c-1.968,2.5 -6.663,9.597 -11.18,19.469c-0.144,0.315 -0.137,0.309 -4.988,11.739Z" style="fill:#fdfdfc;"/><path d="M353.953,215.817c28.169,0.371 36.235,-1.276 59.089,16.825c7.524,5.959 21.746,15.095 34.327,25.069c13.245,10.5 23.788,14.355 17.021,25.208c-15.463,24.796 -26.411,48.012 -32.426,48.777c-4.701,0.597 -20.662,-9.373 -21.7,-9.407c-0.966,-0.032 -1.982,0.447 -2.675,1.121c-0.688,0.668 -1.269,1.67 -1.179,2.624c0.098,1.041 1.324,0.658 3.8,12.501c2.581,12.344 13.839,50.139 15.871,59.327c3.11,14.062 3.92,13.814 7.364,27.824c4.772,19.414 13.326,43.746 12.136,50.554c-1.335,7.639 -7.765,7.861 -29.369,14.532c-1.74,0.537 -1.773,0.3 -21.847,6.409c-6.223,1.894 -15.937,3.286 -25.001,6.432c-12.155,4.218 -12.379,3.302 -27.545,7.967c-18.923,5.821 -19.139,4.947 -37.997,10.87c-23.061,7.243 -26.15,3.887 -29.395,-8.556c-1.438,-5.517 -17.492,-67.087 -17.911,-68.978c-0.892,-4.026 -1.613,-3.795 -12.915,-49.9c-2.105,-8.585 -4.253,-13.441 -5.712,-21.977c-0.446,-2.608 0.242,-3.206 -2.179,-4.355c-4.201,-1.993 -3.682,0.687 -6.213,4.582c-5.198,7.999 -6.299,21.175 -19.041,14.756c-3.549,-1.788 -40.181,-20.822 -43.372,-22.568c-6.374,-3.488 -6.584,-7.335 -6.63,-8.176c-0.298,-5.463 4.547,-14.818 5.166,-16.014c0.564,-1.089 13.391,-30.886 18.057,-40.904c1.663,-3.57 9.023,-28.641 29.634,-39.97c21.071,-11.581 26.271,-23.314 37.443,-12.413c5.162,5.037 12.645,14.857 31.166,16.737c31.941,3.242 47.148,-22.673 49.553,-32.569c0.788,-3.244 1.287,-14.5 6.683,-16.058c1.817,-0.525 14.344,-0.281 15.798,-0.271Z" style="fill:#fefdfd;"/><path d="M553.165,422.806c1.574,-8.622 1.515,-8.578 1.7,-9.312c1.474,-5.852 1.849,-5.712 1.946,-6.225c0.829,-4.407 1.644,-6.547 -2.844,-6.151c-2.232,0.196 -3.37,3.938 -3.844,5.604c-0.616,2.165 -0.738,2.076 -1.703,4.121c-0.803,1.701 -1.882,8.254 -10.978,24.096c-4.314,7.513 -3.508,7.847 -9.12,18.862c-11.304,22.186 -50.41,102.762 -54.663,110.248c-1.63,2.868 -18.168,37.557 -22.963,46.284c-3.663,6.668 -11.427,1.847 -12.86,1.279c-6.599,-2.615 -12.991,-4.461 -14.846,-5.165c-2.514,-0.953 -22.617,-8.574 -31.353,-12.096c-9.605,-3.872 -5.554,-7.999 12.527,-58.873c0.607,-1.708 7.573,-21.309 7.593,-21.345c4.601,-8.689 40.18,-7.837 50.278,-26.278c7.126,-13.013 1.46,-25.828 -5.405,-49.194c-0.514,-1.749 -6.346,-21.602 -6.391,-21.872c-0.251,-1.51 -0.699,-4.204 4.592,-18.571c9.777,-26.553 9.623,-26.572 10.523,-28.859c12.274,-31.2 10.406,-33.61 16.501,-34.975c1.078,-0.241 24.552,1.137 40.091,-9.45c16.004,-10.904 22.402,-28.923 23.073,-29.884c2.233,-3.2 5.895,-2.705 15.021,0.275c28.472,9.3 28.577,8.944 31.029,9.819c29.371,10.484 31.632,7.582 33.231,12.197c1.657,4.781 -13.832,45.864 27.341,69.856c5.807,3.384 5.467,4.599 3.516,11.09c-5.587,18.584 -4.152,18.908 -7.817,30.768c-4.414,14.283 -3.585,14.438 -6.626,24.908c-3.523,12.131 -3.675,12.077 -3.96,13.137c-9.616,35.821 -9.847,36.998 -10.487,40.265c-1.451,7.407 -3.565,14.207 -3.943,15.423c-4.358,14.024 -14.537,56.409 -18.315,68.89c-4.174,13.785 -3.47,13.914 -7.411,27.765c-6.716,23.602 -6.202,23.726 -6.82,25.767c-2.689,8.879 -5.015,8.46 -14.068,6.27c-16.938,-4.098 -16.948,-3.976 -18.407,-4.381c-30.721,-8.525 -33.325,-5.934 -34.749,-11.656c-1.118,-4.494 4.82,-32.178 5.359,-37.667c2.465,-25.086 3.496,-24.898 7.016,-49.904c3.302,-23.457 2.263,-23.571 6.55,-46.833c2.749,-14.918 2.25,-17.517 11.686,-78.233Z" style="fill:#fdfcfc;"/><path d="M1429.428,385.881c-6.81,8.048 -15.79,17.528 -25.993,49.349c-2.136,6.662 -3.958,26.925 -3.205,37.708c1.442,20.655 0.097,21.042 7.693,40.278c0.264,0.669 9.473,30.086 38.909,51.477c1.193,0.867 3.95,2.87 16.43,8.343c0.555,0.243 12.196,6.792 37.563,6.698c16.691,-0.061 31.057,-2.301 50.192,-12.765c0.913,-0.499 11.706,-7.651 17.55,-13.787c11.828,-12.418 15.7,-23.417 19.779,-23.9c3.717,-0.44 4.795,1.965 12.578,5.933c2.251,1.148 19.372,11.57 31.526,18.228c9.722,5.325 14.291,6.518 8.035,15.72c-4.398,6.47 -4.554,6.278 -13.167,17.38c-11.45,14.758 -19.459,18.737 -26.292,24.127c-14.54,11.469 -32.504,18.746 -34.122,19.514c-5.599,2.657 -78.308,29.695 -147.782,-9.576c-12.079,-6.828 -12.142,-6.687 -23.314,-14.856c-2.746,-2.008 -20.828,-17.65 -29.264,-29.796c-7.679,-11.055 -53.468,-68.156 -28.143,-162.402c1.298,-4.831 8.153,-21.318 9.947,-24.672c0.304,-0.568 3.148,-5.607 3.423,-6.094c0.666,-1.18 6.521,-19.603 34.64,-46.093c1.951,-1.838 13.834,-13.033 27.05,-19.781c4.108,-2.098 7.124,-4.745 12.271,-6.716c8.427,-3.227 14.507,-7.535 24.925,-9.86c11.528,-2.573 23.56,-8.856 75.186,-5.884c10.248,0.59 35.172,6.564 44.301,11.755c2.622,1.491 10.76,4.781 17.299,8.653c7.911,4.684 24.819,14.117 40.423,33.907c10.745,13.628 14.607,17.357 4.243,24.191c-2.698,1.779 -17.88,13.321 -25.262,18.353c-7.818,5.329 -15.084,12.783 -18.526,12.817c-6.546,0.065 -2.174,-6.779 -23.714,-26.342c-9.23,-8.382 -28.672,-24.367 -69.995,-22.692c-5.682,0.23 -20.481,2.849 -25.289,4.686c-25.419,9.71 -39.192,25.419 -39.897,26.098Z" style="fill:#fdfdfd;"/><path d="M1702.603,447.911c0.191,-80.681 -0.307,-80.665 -0.219,-84.378c1.425,-59.858 -2.616,-64.806 4.505,-66.48c0.906,-0.213 0.886,-0.168 156.433,-0.168c59.103,-0 59.711,-0.334 61.512,1.881c1.22,1.501 1.783,2.193 1.159,24.152c-0.016,0.579 -0.154,5.409 -3.187,6.504c-3.504,1.265 -150.172,0.201 -175.092,0.615c-3.686,0.061 -4.12,-0.718 -6.595,1.989c-1.775,1.941 -1.144,16.253 -1.221,19.018c-0.443,15.872 -0.016,71.884 0.032,78.134c0.095,12.499 -1.344,20.198 4.76,21.056c2.332,0.328 120.637,0.015 131.127,-0.013c20.911,-0.055 26.535,-1.721 26.775,7.105c0.041,1.495 0.459,16.886 0.361,18.692c-0.444,8.188 -3.353,7.053 -11.51,7.032c-11.742,-0.031 -143.112,-0.374 -146.773,0.04c-6.573,0.743 -4.761,4.67 -4.733,33.571c0.008,8.252 0.1,101.931 0.085,103.148c-0.173,14.092 0.128,17.416 -7.96,17.474c-18.833,0.136 -26.279,-0.132 -28.053,-1.932c-1.7,-1.726 -1.44,-8.561 -1.411,-9.314c0.097,-2.552 0.001,-128.325 0.003,-178.127Z" style="fill:#772bb5;"/><path d="M2077.958,401.031c0.03,-5.944 -0.548,-15.447 2.054,-17.369c3.347,-2.472 35.457,-0.413 39.6,-1.168c5.896,-1.074 4.521,-6.288 4.516,-25.208c-0.011,-41.809 -1.464,-45.522 4.873,-46.45c0.604,-0.088 21.586,-0.064 24.912,0.092c0.536,0.025 4.642,0.218 6.147,2.68c1.863,3.048 0.022,60.393 1.227,65.258c1.205,4.863 9.928,4.053 23.911,4.048c50.558,-0.019 53.867,-1.117 55.976,2.629c1.694,3.01 0.914,20.049 0.834,21.791c-0.402,8.771 -7.61,6.762 -22.44,6.71c-55.176,-0.192 -56.614,-0.707 -58.111,3.117c-1.219,3.112 -0.615,150.013 -0.523,152.581c0.076,2.111 0.522,14.541 8.85,24.875c9.641,11.965 28.033,15.114 40.434,12.806c15.439,-2.873 20.55,-5.183 27.524,-10.673c5.658,-4.453 7.182,2.814 7.628,3.935c5.733,14.378 12.297,21.016 -0.733,28.574c-6.106,3.542 -15.751,9.484 -34.508,11.502c-56.729,6.104 -77.845,-32.486 -81.05,-42.896c-6.561,-21.311 -4.834,-22.597 -4.786,-99.955c0.014,-21.9 -0.111,-21.822 -0.143,-43.755c-0.054,-37.124 0.062,-37.816 -2.314,-39.212c-2.755,-1.619 -27.99,-0.673 -36.661,-1.033c-3.88,-0.161 -6.853,-1.005 -7.176,-6.532c-0.123,-2.112 0.081,-4.235 -0.043,-6.347Z" style="fill:#772bb5;"/><path d="M1987.864,426.035c-0.141,-40.292 -0.26,-40.728 1.667,-42.515c1.662,-1.543 10.386,-1.38 11.296,-1.363c19.111,0.356 20.332,-0.309 22.723,2.607c1.354,1.651 1.127,1.947 1.205,72.519c0.015,13.748 0.187,168.596 0.019,171.849c-0.424,8.233 -5.485,8.071 -8.38,8.145c-25.355,0.641 -26.166,-0.455 -27.478,-2.228c-1.757,-2.375 -0.841,-2.775 -1.052,-209.013Z" style="fill:#772bb5;"/><path d="M563.107,283.126c-0.685,-0.187 -42.484,-12.969 -46.049,-14.575c-0.714,-0.322 -6.559,-2.955 -5.707,-7.959c0.187,-1.096 1.837,-10.779 8.066,-11.321c1.299,-0.113 25.031,7.229 28.146,8.382c6.093,2.255 6.205,1.653 12.376,3.648c2.252,0.728 24.667,7.972 28.12,9.184c20.692,7.263 20.974,6.267 31.157,9.691c34.546,11.619 34.666,11.093 37.659,12.12c11.19,3.836 18.502,3.243 15.756,14.975c-2.818,12.04 -7.437,8.501 -19.131,4.447c-7.166,-2.484 -7.728,-2.679 -90.394,-28.592Z" style="fill:#fdf6fe;"/><path d="M1990.943,333.196c-1.926,-1.495 -2.613,-0.711 -6.982,-6.175c-1.444,-1.806 -1.528,-1.699 -2.552,-3.761c-12.032,-24.24 15.025,-49.038 38.321,-34.963c27.929,16.874 7.393,63.511 -28.787,44.899Z" style="fill:#772bb5;"/><path d="M654.19,325.168c7.603,1.845 13.515,1.662 12.685,10.287c-0.169,1.76 -0.68,1.661 -3.265,21.865c-2.038,15.934 -3.099,16.565 -4.325,17.294c-2.229,1.326 -4.825,-0.339 -12.18,-7.336c-17.389,-16.545 -12.377,-43.729 -9.285,-45.008c4.111,-1.701 9.288,0.622 16.369,2.899Z" style="fill:#fdf4fc;"/><path d="M507.561,317.987c-1.477,0.483 -15.668,5.125 -19.054,3.808c-4.94,-1.921 -2.373,-7.977 0.675,-14.093c13.003,-26.087 12.103,-30.675 20.969,-28.382c1.301,0.337 1.268,0.424 15.906,5.418c3.637,1.241 4.781,0.187 5.866,3.862c0.419,1.42 1.771,6 -7.931,16.718c-3.029,3.346 -3.119,3.179 -6.452,6.259c-5.919,5.47 -6.376,4.754 -9.979,6.41Z" style="fill:#fdf5fd;"/></g></svg>